<?xml version="1.0" encoding="UTF-8"?>
<svg width="128" height="128" version="1.1" viewBox="0 0 128 128" xml:space="preserve" xmlns="http://www.w3.org/2000/svg" xmlns:cc="http://creativecommons.org/ns#" xmlns:dc="http://purl.org/dc/elements/1.1/" xmlns:rdf="http://www.w3.org/1999/02/22-rdf-syntax-ns#"><defs><filter id="filter1452" x="-.083243" y="-.11329" width="1.1665" height="1.2266" color-interpolation-filters="sRGB"><feGaussianBlur stdDeviation="0.70808772"/></filter><filter id="filter2795" x="-.22417" y="-.22417" width="1.4483" height="1.4483" color-interpolation-filters="sRGB"><feGaussianBlur stdDeviation="0.89666965"/></filter><filter id="filter2799" x="-.22417" y="-.22417" width="1.4483" height="1.4483" color-interpolation-filters="sRGB"><feGaussianBlur stdDeviation="0.89666965"/></filter><filter id="filter2803" x="-.22417" y="-.22417" width="1.4483" height="1.4483" color-interpolation-filters="sRGB"><feGaussianBlur stdDeviation="0.89666965"/></filter><filter id="filter2807" x="-.22417" y="-.22417" width="1.4483" height="1.4483" color-interpolation-filters="sRGB"><feGaussianBlur stdDeviation="0.89666965"/></filter><filter id="filter2811" x="-.22417" y="-.22417" width="1.4483" height="1.4483" color-interpolation-filters="sRGB"><feGaussianBlur stdDeviation="0.89666965"/></filter><filter id="filter2815" x="-.22417" y="-.22417" width="1.4483" height="1.4483" color-interpolation-filters="sRGB"><feGaussianBlur stdDeviation="0.89666965"/></filter><filter id="filter2819" x="-.22417" y="-.22417" width="1.4483" height="1.4483" color-interpolation-filters="sRGB"><feGaussianBlur stdDeviation="0.89666965"/></filter><filter id="filter2823" x="-.22417" y="-.22417" width="1.4483" height="1.4483" color-interpolation-filters="sRGB"><feGaussianBlur stdDeviation="0.89666965"/></filter></defs><metadata><rdf:RDF><cc:Work rdf:about=""><dc:format>image/svg+xml</dc:format><dc:type rdf:resource="http://purl.org/dc/dcmitype/StillImage"/></cc:Work></rdf:RDF></metadata><path d="m45.715 32a13.714 13.714 0 0 0-13.715 13.715v20.57a13.714 13.714 0 0 0 13.715 13.715 13.714 13.714 0 0 0-13.715 13.715v2.2852h48 16v-16-6.0566a13.714 13.714 0 0 1-1.6953-1.3906 3.4286 3.4286 0 0 1 1.6953-5.6582v-34.895h-2.2852a13.714 13.714 0 0 0-13.715 13.715 13.714 13.714 0 0 0-13.715-13.715h-20.57zm24 17.143a3.4286 3.4286 0 0 1 3.4277 3.4297v6.8555a3.4287 3.4287 0 0 1-6.8574 0v-6.8555a3.4286 3.4286 0 0 1 3.4297-3.4297zm-27.43 0.001953a3.4286 3.4286 0 0 1 3.4297 3.4277v6.8555a3.4287 3.4287 0 0 1-6.8574 0v-6.8555a3.4286 3.4286 0 0 1 3.4277-3.4277zm48 0a3.4286 3.4286 0 0 1 3.4297 3.4277v6.8555a3.4287 3.4287 0 0 1-6.8574 0v-6.8555a3.4286 3.4286 0 0 1 3.4277-3.4277zm-10.285 17.141a13.714 13.714 0 0 0 13.715 13.715 13.714 13.714 0 0 0-13.715 13.715 13.714 13.714 0 0 0-13.715-13.715 13.714 13.714 0 0 0 13.715-13.715zm-31.26 0.45703a3.4286 3.4286 0 0 1 2.4121 0.96289 6.8571 6.8571 0 0 0 9.6953 0 3.4286 3.4286 0 0 1 4.8477 4.8477 13.714 13.714 0 0 1-19.391 0 3.4286 3.4286 0 0 1 2.4355-5.8105z" fill="#8da5f3"/><g transform="translate(0,4)"><g transform="translate(52 100)" fill="#000000" filter="url(#filter1452)" opacity=".66149"><path d="m22.208 4.5h-20.415l4 5h3.707v10h5.001v-10h3.707z" color="#000000" fill="#000000" stroke-linecap="round" style="-inkscape-stroke:none"/></g><g transform="translate(52 100)"><path d="m20.5 5.5-3 3h-4v10h-3v-10h-4l-3-3z" fill="#ff5f5f" stroke="#ffffff" stroke-linecap="round" stroke-linejoin="round"/></g></g><g transform="translate(-4.0005)"><g transform="rotate(90 -12 40)" fill="#000000" filter="url(#filter1452)" opacity=".66149"><path d="m22.208 4.5h-20.415l4 5h3.707v10h5.001v-10h3.707z" color="#000000" fill="#000000" stroke-linecap="round" style="-inkscape-stroke:none"/></g><g transform="rotate(90,-12,40)"><path d="m20.5 5.5-3 3h-4v10h-3v-10h-4l-3-3z" fill="#ff5f5f" stroke="#ffffff" stroke-linecap="round" stroke-linejoin="round"/></g></g><g transform="rotate(90 66 62)"><g transform="rotate(90 -12 40)" fill="#000000" filter="url(#filter1452)" opacity=".66149"><path d="m22.208 4.5h-20.415l4 5h3.707v10h5.001v-10h3.707z" color="#000000" fill="#000000" stroke-linecap="round" style="-inkscape-stroke:none"/></g><g transform="rotate(90,-12,40)"><path d="m20.5 5.5-3 3h-4v10h-3v-10h-4l-3-3z" fill="#ff5f5f" stroke="#ffffff" stroke-linecap="round" stroke-linejoin="round"/></g></g><g transform="rotate(180 66 64)"><g transform="rotate(90 -12 40)" fill="#000000" filter="url(#filter1452)" opacity=".66149"><path d="m22.208 4.5h-20.415l4 5h3.707v10h5.001v-10h3.707z" color="#000000" fill="#000000" stroke-linecap="round" style="-inkscape-stroke:none"/></g><g transform="rotate(90,-12,40)"><path d="m20.5 5.5-3 3h-4v10h-3v-10h-4l-3-3z" fill="#ff5f5f" stroke="#ffffff" stroke-linecap="round" stroke-linejoin="round"/></g></g><path d="m32 32v64h64v-64z" fill="none" opacity=".66149" stroke="#f09263" stroke-linecap="round" stroke-miterlimit="16"/><g fill="#000000" stroke-linecap="round" stroke-miterlimit="16"><path d="m100 23.2c-2.6439 0-4.8 2.1561-4.8 4.8s2.1561 4.8 4.8 4.8c2.6438 0 4.8-2.1561 4.8-4.8s-2.1562-4.8-4.8-4.8z" color="#000000" filter="url(#filter2823)" opacity=".50051" style="-inkscape-stroke:none"/><path d="m64 23.2c-2.6439 0-4.8 2.1561-4.8 4.8s2.1561 4.8 4.8 4.8 4.8-2.1561 4.8-4.8-2.1561-4.8-4.8-4.8z" color="#000000" filter="url(#filter2819)" opacity=".50051" style="-inkscape-stroke:none"/><path d="m28 23.2c-2.6439 0-4.8 2.1561-4.8 4.8s2.1561 4.8 4.8 4.8 4.8-2.1561 4.8-4.8-2.1561-4.8-4.8-4.8z" color="#000000" filter="url(#filter2815)" opacity=".50051" style="-inkscape-stroke:none"/><path d="m28 59.2c-2.6439 0-4.8 2.1561-4.8 4.8s2.1561 4.8 4.8 4.8 4.8-2.1561 4.8-4.8-2.1561-4.8-4.8-4.8z" color="#000000" filter="url(#filter2811)" opacity=".50051" style="-inkscape-stroke:none"/><path d="m100 59.2c-2.6439 0-4.8 2.1561-4.8 4.8s2.1561 4.8 4.8 4.8c2.6438 0 4.8-2.1561 4.8-4.8s-2.1562-4.8-4.8-4.8z" color="#000000" filter="url(#filter2807)" opacity=".50051" style="-inkscape-stroke:none"/><path d="m28 95.2c-2.6439 0-4.8 2.1561-4.8 4.8 0 2.6438 2.1561 4.8 4.8 4.8s4.8-2.1562 4.8-4.8c0-2.6439-2.1561-4.8-4.8-4.8z" color="#000000" filter="url(#filter2803)" opacity=".50051" style="-inkscape-stroke:none"/><path d="m64 95.2c-2.6439 0-4.8 2.1561-4.8 4.8 0 2.6438 2.1561 4.8 4.8 4.8s4.8-2.1562 4.8-4.8c0-2.6439-2.1561-4.8-4.8-4.8z" color="#000000" filter="url(#filter2799)" opacity=".50051" style="-inkscape-stroke:none"/><path d="m100 95.2c-2.6439 0-4.8 2.1561-4.8 4.8 0 2.6438 2.1561 4.8 4.8 4.8 2.6438 0 4.8-2.1562 4.8-4.8 0-2.6439-2.1562-4.8-4.8-4.8z" color="#000000" filter="url(#filter2795)" opacity=".50051" style="-inkscape-stroke:none"/></g><g fill="#ff5f5f" stroke="#ffffff" stroke-linecap="round" stroke-miterlimit="16"><circle cx="100" cy="28" r="3.5"/><circle cx="64" cy="28" r="3.5"/><circle cx="28" cy="28" r="3.5"/><circle cx="28" cy="64" r="3.5"/><circle cx="100" cy="64" r="3.5"/><circle cx="28" cy="100" r="3.5"/><circle cx="64" cy="100" r="3.5"/><circle cx="100" cy="100" r="3.5"/></g></svg>
